 <svg  version="1.0" xmlns="http://www.w3.org/2000/svg"  width="300.000000pt" height="300.000000pt" viewBox="0 0 300.000000 300.000000"  preserveAspectRatio="xMidYMid meet">  <g transform="translate(0.000000,300.000000) scale(0.100000,-0.100000)" fill="#43128f" stroke="none"> <path d="M1605 2479 c-110 -15 -216 -28 -235 -29 -42 -1 -24 -14 33 -24 31 -6 37 -11 37 -31 0 -14 -4 -25 -10 -25 -14 0 -13 -37 2 -42 9 -3 8 -19 -1 -67 -7 -35 -15 -69 -18 -77 -4 -10 4 -14 27 -14 31 0 32 1 26 33 -17 81 -18 117 -6 132 10 12 10 19 2 27 -14 14 -16 48 -3 48 5 0 86 -20 179 -45 l171 -45 208 54 c114 30 217 56 228 59 33 7 5 12 -208 42 -108 15 -205 28 -215 30 -9 2 -107 -10 -217 -26z m345 -29 c36 -10 34 -10 60 -10 11 0 20 -4 20 -9 0 -11 -36 -25 -137 -52 -71 -19 -89 -20 -135 -10 -71 15 -83 18 -126 32 -20 6 -43 14 -51 16 -23 6 0 21 44 28 22 4 60 10 85 15 50 9 193 3 240 -10z"/> <path d="M1530 2318 c0 -24 -3 -80 -6 -124 l-7 -81 64 -12 c62 -11 107 -22 140 -36 14 -5 17 5 23 67 4 40 14 90 21 112 8 22 12 42 10 44 -2 2 -48 17 -102 32 -54 15 -108 30 -120 34 -21 7 -23 4 -23 -36z m130 -29 c64 -18 72 -26 66 -68 -13 -83 -20 -96 -57 -96 -19 -1 -38 2 -44 4 -5 3 -17 6 -25 6 -33 1 -40 16 -40 84 0 69 12 95 40 87 8 -3 35 -10 60 -17z"/> <path d="M1804 2254 c-20 -47 -44 -158 -44 -203 0 -24 -4 -32 -14 -28 -152 59 -337 73 -476 38 -269 -68 -472 -259 -565 -531 -13 -38 -26 -93 -30 -123 l-7 -55 -45 -6 c-25 -3 -76 -6 -112 -6 l-66 -1 42 -21 c24 -11 61 -39 84 -61 81 -81 102 -165 53 -214 l-26 -26 29 7 c15 4 35 9 44 12 11 3 20 -10 33 -53 67 -218 274 -401 531 -469 98 -26 341 -26 440 -1 165 43 353 162 455 289 76 95 187 308 160 308 -6 0 -10 -6 -10 -13 0 -21 -87 -143 -152 -212 -100 -108 -229 -190 -363 -231 -94 -29 -315 -27 -415 4 -211 67 -352 191 -421 372 l-19 50 23 5 c31 7 459 79 595 100 l112 18 0 39 c0 21 -7 52 -15 68 -18 35 -70 76 -107 85 -16 4 -28 11 -28 16 0 18 48 8 92 -20 53 -34 93 -104 86 -151 -3 -17 -4 -30 -4 -30 1 0 51 7 111 15 61 8 187 24 280 35 278 33 306 38 326 56 64 58 -50 186 -165 186 -23 0 -88 -7 -145 -16 -58 -9 -110 -16 -116 -16 -7 0 -19 27 -27 60 l-15 61 26 -5 c14 -3 58 -8 96 -11 99 -9 236 -33 284 -50 49 -17 49 -16 26 85 -69 294 -251 539 -493 664 l-33 17 -15 -37z m113 -60 c53 -34 127 -96 162 -137 50 -58 62 -75 75 -102 8 -16 23 -39 33 -50 40 -44 123 -259 123 -319 0 -16 -5 -17 -37 -11 -21 4 -63 11 -93 15 -30 5 -68 11 -85 14 -16 3 -63 8 -103 9 -69 4 -74 2 -90 -20 -13 -22 -14 -32 -3 -71 19 -73 35 -85 106 -79 33 3 97 11 142 18 74 12 85 11 123 -6 43 -19 90 -67 90 -91 0 -23 -51 -41 -135 -47 -44 -3 -91 -8 -105 -12 -14 -3 -61 -10 -105 -15 -44 -5 -111 -14 -149 -20 -38 -6 -71 -9 -73 -6 -3 2 -18 0 -34 -6 -34 -12 -59 2 -59 33 0 11 -4 19 -10 19 -5 0 -10 6 -10 14 0 7 -9 25 -20 38 -24 31 -18 38 34 39 66 0 128 29 139 64 7 21 7 30 -1 33 -7 2 -12 10 -12 18 0 21 -41 94 -54 96 -43 5 -76 5 -111 -2 -22 -5 -58 -11 -80 -14 -60 -10 -76 -29 -70 -89 5 -42 2 -54 -16 -74 -22 -22 -22 -23 -4 -43 10 -11 22 -20 26 -20 4 0 26 -16 48 -37 29 -25 41 -44 41 -63 0 -37 -15 -47 -80 -54 -91 -9 -190 -24 -275 -40 -44 -8 -93 -17 -110 -19 -170 -26 -222 -42 -239 -74 -12 -23 -10 -33 10 -87 14 -33 36 -78 51 -101 30 -45 136 -155 150 -155 5 0 19 -9 32 -21 28 -26 194 -99 225 -99 12 0 27 -5 33 -11 14 -14 311 -16 338 -2 17 9 108 39 155 51 27 8 -10 -27 -46 -43 -19 -8 -50 -22 -70 -31 -65 -29 -131 -43 -279 -60 -34 -4 -151 6 -250 22 -27 5 -77 24 -117 45 -10 5 -23 9 -30 9 -26 0 -180 115 -231 172 -50 55 -78 101 -127 212 -12 28 -33 64 -46 81 -14 19 -24 45 -24 65 0 35 -28 110 -42 110 -4 0 -8 6 -8 14 0 8 -7 16 -15 20 -27 10 -17 36 13 36 54 0 82 37 97 127 3 18 10 45 16 60 6 15 12 35 14 45 11 51 97 194 165 272 67 76 224 173 334 206 123 36 309 33 433 -7 89 -29 104 -20 120 77 7 41 15 82 17 90 3 8 5 20 5 27 1 6 9 14 19 16 9 3 18 5 20 6 2 0 28 -15 59 -35z m-142 -649 c6 -22 20 -53 29 -68 18 -27 18 -27 -5 -27 -13 -1 -73 -7 -132 -14 l-108 -12 -5 25 c-3 14 -10 43 -15 64 -6 22 -9 40 -7 41 5 5 202 33 217 32 8 0 19 -19 26 -41z"/> <path d="M1984 1961 c-58 -35 -77 -69 -72 -130 4 -47 10 -59 39 -83 19 -16 44 -31 57 -34 66 -17 146 34 161 103 23 107 -96 198 -185 144z m127 -50 c47 -47 36 -121 -23 -155 -40 -24 -89 -14 -122 25 -30 35 -33 67 -11 109 19 37 41 49 88 50 29 0 45 -7 68 -29z"/> <path d="M2033 1894 c-7 -3 -13 -16 -13 -29 0 -44 50 -60 74 -22 20 32 -22 67 -61 51z"/> <path d="M1275 1559 c-44 -4 -95 -12 -114 -18 -18 -6 -36 -9 -40 -8 -12 4 -116 -61 -142 -89 -80 -87 -25 -114 191 -91 41 4 104 10 140 13 76 7 124 20 139 38 12 14 10 20 -26 103 -12 29 -49 65 -63 62 -3 -1 -41 -5 -85 -10z m115 -47 c0 -10 9 -35 20 -57 11 -22 20 -40 20 -41 0 -3 -110 -14 -240 -24 -69 -5 -149 -12 -178 -16 l-54 -6 17 25 c22 34 81 74 146 98 51 20 245 50 262 42 4 -2 7 -12 7 -21z"/> <path d="M366 1309 c-22 -17 -26 -27 -24 -67 l1 -47 4 43 c4 44 23 49 23 6 0 -33 32 -93 67 -126 39 -37 78 -50 130 -42 40 6 43 8 43 38 0 18 -13 52 -29 78 -53 84 -137 126 -186 94 -16 -10 -26 -12 -30 -5 -9 14 -4 18 42 34 33 12 34 14 12 15 -15 0 -38 -9 -53 -21z m162 -106 c37 -38 52 -61 50 -76 -9 -60 -115 -15 -163 70 -18 31 -18 33 0 53 26 28 50 18 113 -47z"/> <path d="M377 1153 c-12 -11 32 -60 81 -92 45 -28 52 -30 83 -20 53 18 52 24 -4 26 -78 2 -88 3 -82 12 2 5 -11 19 -29 32 -19 13 -33 27 -30 30 6 10 -11 20 -19 12z"/> <path d="M1646 1138 c-9 -5 -16 -15 -16 -23 0 -18 50 -45 83 -45 13 0 51 -21 86 -46 34 -26 64 -44 67 -42 3 3 -18 20 -46 38 -50 32 -63 50 -36 50 25 0 29 21 9 42 -22 22 -123 40 -147 26z m88 -24 c9 -3 16 -10 16 -15 0 -14 -24 -11 -46 6 -16 12 -17 14 -2 15 9 0 23 -3 32 -6z"/> <path d="M618 1083 c-3 -12 -23 -31 -44 -42 -23 -11 -32 -20 -22 -21 24 0 82 53 76 70 -3 10 -6 8 -10 -7z"/> <path d="M1826 1062 c20 -18 124 -72 124 -64 0 4 -26 22 -59 40 -56 31 -86 41 -65 24z"/> </g> </svg> 