<?xml version="1.0" encoding="UTF-8"?> <svg xmlns="http://www.w3.org/2000/svg" width="40" height="40" viewBox="0 0 40 40" fill="none"><rect x="1" y="1" width="38" height="38" rx="19" stroke="white" stroke-width="2"></rect><circle cx="20" cy="20" r="18" fill="#D80027"></circle><path fill-rule="evenodd" clip-rule="evenodd" d="M23.2485 11.9563L23.3891 10.0789L22.1727 11.5203L20.4219 10.8102L21.4203 12.4063L20.2039 13.8477L22.0391 13.3977L23.0305 15.0008L23.1641 13.1164L24.9992 12.6664L23.2485 11.9563ZM11.8508 12.9547L13.4047 17.7359H18.432L14.368 20.6961L15.9219 25.4774L11.8508 22.5242L7.77969 25.4774L9.34063 20.6961L5.26953 17.7359H10.2969L11.8508 12.9547ZM23.3398 29.8789L22.1515 28.4164L20.3937 29.0984L21.4132 27.5164L20.2249 26.0469L22.046 26.532L23.0726 24.95L23.171 26.8344L24.9992 27.3195L23.2343 27.9945L23.3398 29.8789ZM26.2648 23.7898L25.7023 25.5899L27.214 24.4578L28.7539 25.5477L28.1492 23.7617L29.6609 22.6367L27.7765 22.6578L27.1648 20.8719L26.6093 22.6719L24.7249 22.7L26.2648 23.7898ZM28.8876 15.2117L28.0579 16.9063L29.4079 18.2211L27.5446 17.9539L26.7149 19.6414L26.3915 17.7852L24.5211 17.518L26.1946 16.6391L25.8711 14.7758L27.2211 16.0906L28.8876 15.2117Z" fill="#FFDA44"></path></svg> 