<?xml version="1.0" encoding="UTF-8"?> <svg xmlns="http://www.w3.org/2000/svg" width="40" height="40" viewBox="0 0 40 40" fill="none"><rect x="1" y="1" width="38" height="38" rx="19" stroke="white" stroke-width="2"></rect><circle cx="20" cy="20" r="18" fill="#0052B4"></circle><path d="M28.4852 7.51485L29.3832 10.2787L32.2893 10.2787L29.9382 11.9869L30.8363 14.7508L28.4852 13.0426L26.1341 14.7508L27.0321 11.9869L24.681 10.2787L27.5871 10.2787L28.4852 7.51485Z" fill="#FFC635"></path><path d="M31.9998 15.9999L32.8979 18.7638H35.804L33.4529 20.472L34.3509 23.2359L31.9998 21.5277L29.6487 23.2359L30.5468 20.472L28.1956 18.7638H31.1018L31.9998 15.9999Z" fill="#FFC635"></path><path d="M28.4852 24.4852L29.3832 27.2491H32.2893L29.9382 28.9573L30.8363 31.7211L28.4852 30.013L26.1341 31.7211L27.0321 28.9573L24.681 27.2491H27.5871L28.4852 24.4852Z" fill="#FFC635"></path><path d="M19.9999 27.9999L20.898 30.7638H23.8041L21.453 32.4719L22.351 35.2358L19.9999 33.5277L17.6488 35.2358L18.5469 32.4719L16.1958 30.7638H19.1019L19.9999 27.9999Z" fill="#FFC635"></path><path d="M11.5148 24.4852L12.4129 27.2491H15.319L12.9679 28.9573L13.8659 31.7211L11.5148 30.013L9.16373 31.7211L10.0618 28.9573L7.71066 27.2491H10.6168L11.5148 24.4852Z" fill="#FFC635"></path><path d="M8.00018 15.9999L8.89822 18.7638H11.8043L9.45324 20.472L10.3513 23.2359L8.00018 21.5277L5.64908 23.2359L6.54712 20.472L4.19602 18.7638H7.10214L8.00018 15.9999Z" fill="#FFC635"></path><path d="M11.5148 7.51485L12.4129 10.2787L15.319 10.2787L12.9679 11.9869L13.8659 14.7508L11.5148 13.0426L9.16373 14.7508L10.0618 11.9869L7.71066 10.2787L10.6168 10.2787L11.5148 7.51485Z" fill="#FFC635"></path><path d="M19.9999 4.00014L20.898 6.76403L23.8041 6.76403L21.453 8.4722L22.351 11.2361L19.9999 9.52792L17.6488 11.2361L18.5469 8.4722L16.1958 6.76403L19.1019 6.76403L19.9999 4.00014Z" fill="#FFC635"></path></svg> 