<?xml version="1.0" encoding="UTF-8"?> <svg xmlns="http://www.w3.org/2000/svg" width="40" height="40" viewBox="0 0 40 40" fill="none"><rect x="1" y="1" width="38" height="38" rx="19" stroke="white" stroke-width="2"></rect><path d="M37.3814 24.6957C37.7848 23.1987 38 21.6245 38 20L37.3814 15.3044C36.9302 13.63 36.2434 12.0522 35.3589 10.6087L31.2064 5.91303C28.1334 3.46522 24.2415 2.0018 20.0078 2H19.9922C15.7585 2.0018 11.8666 3.46522 8.79365 5.91303L4.64109 10.6087C3.75657 12.0522 3.06984 13.63 2.61861 15.3044L2 20L2 20.0079C2.0007 21.6296 2.21585 23.2011 2.61862 24.6957L4.64109 29.3913C5.74275 31.1892 7.15123 32.7787 8.79366 34.087L20 38L31.2063 34.087C32.8488 32.7787 34.2572 31.1892 35.3589 29.3913L37.3814 24.6957Z" fill="#EEEEEE"></path><path d="M37.3814 15.3043C37.7848 16.8013 38 18.3755 38 20H2C2 18.3755 2.21519 16.8013 2.61862 15.3043H37.3814Z" fill="#D80027"></path><path d="M31.2063 5.91302C32.8488 7.22133 34.2572 8.81084 35.3589 10.6087H4.64109C5.74276 8.81084 7.15124 7.22133 8.79367 5.91302H31.2063Z" fill="#D80027"></path><path d="M35.3589 29.3913C36.2434 27.9478 36.9302 26.37 37.3814 24.6956H2.61861C3.06984 26.37 3.75657 27.9478 4.64108 29.3913H35.3589Z" fill="#D80027"></path><path d="M31.2063 34.087H8.79365C11.8648 36.5333 15.7539 37.9965 19.9846 38H20.0154C24.2461 37.9965 28.1352 36.5333 31.2063 34.087Z" fill="#D80027"></path><path d="M2 19.2677C2.3842 9.6661 10.2895 2 19.9854 2C19.9902 2 19.9951 2 20 2.00001V20H2V19.2677Z" fill="#0052B4"></path><path fill-rule="evenodd" clip-rule="evenodd" d="M9.69964 5.23655C10.288 4.82532 10.902 4.44835 11.5389 4.10855L11.6062 4.31567H13.5679L11.9808 5.4687L12.587 7.33436L11 6.18132L9.41298 7.33436L10.0192 5.4687L9.69964 5.23655ZM4.08038 11.5919C4.49571 10.8072 4.96737 10.0568 5.48997 9.34625L5.75619 10.1656H7.71786L6.13084 11.3186L6.73703 13.1843L5.15001 12.0313L3.56299 13.1843L4.08038 11.5919ZM16.85 2.45001L17.4562 4.31567H19.4179L17.8308 5.4687L18.437 7.33436L16.85 6.18132L15.263 7.33436L15.8692 5.4687L14.2822 4.31567H16.2438L16.85 2.45001ZM11 8.29996L11.6062 10.1656H13.5679L11.9808 11.3186L12.587 13.1843L11 12.0313L9.41298 13.1843L10.0192 11.3186L8.43215 10.1656H10.3938L11 8.29996ZM17.4562 10.1656L16.85 8.29996L16.2438 10.1656H14.2822L15.8692 11.3186L15.263 13.1843L16.85 12.0313L18.437 13.1843L17.8308 11.3186L19.4179 10.1656H17.4562ZM5.15001 14.15L5.75619 16.0156H7.71786L6.13084 17.1687L6.73703 19.0343L5.15001 17.8813L3.56299 19.0343L4.16917 17.1687L2.58215 16.0156H4.54382L5.15001 14.15ZM11.6062 16.0156L11 14.15L10.3938 16.0156H8.43215L10.0192 17.1687L9.41298 19.0343L11 17.8813L12.587 19.0343L11.9808 17.1687L13.5679 16.0156H11.6062ZM16.85 14.15L17.4562 16.0156H19.4179L17.8308 17.1687L18.437 19.0343L16.85 17.8813L15.263 19.0343L15.8692 17.1687L14.2822 16.0156H16.2438L16.85 14.15Z" fill="#EEEEEE"></path></svg> 