<svg id="svg" version="1.1" xmlns="http://www.w3.org/2000/svg" xmlns:xlink="http://www.w3.org/1999/xlink" width="400" height="400" viewBox="0, 0, 400,400"><g id="svgg"><path id="path0" d="M359.761 101.691 C 359.652 101.804,351.917 103.572,342.574 105.620 C 327.332 108.961,308.872 113.124,302.539 114.649 C 301.250 114.960,294.570 116.457,287.695 117.977 C 280.820 119.497,274.305 121.146,273.218 121.643 C 267.322 124.335,266.158 134.358,271.088 139.973 L 272.331 141.389 271.569 142.472 C 271.149 143.067,268.564 147.246,265.823 151.758 C 263.083 156.270,260.520 160.484,260.129 161.124 C 259.613 161.968,259.364 162.129,259.218 161.709 C 259.108 161.392,258.295 158.848,257.412 156.055 C 251.195 136.390,249.614 132.121,247.806 130.110 C 242.606 124.327,232.799 126.165,230.339 133.384 C 229.342 136.308,229.482 137.178,232.455 146.549 C 233.978 151.347,236.621 159.932,238.330 165.625 C 240.039 171.318,242.143 178.199,243.007 180.915 L 244.577 185.853 233.679 202.985 C 227.685 212.408,221.058 222.930,218.952 226.367 C 216.847 229.805,214.198 234.128,213.066 235.974 C 210.020 240.942,209.454 243.950,210.837 247.809 C 213.505 255.250,223.323 257.221,228.478 251.351 C 229.828 249.813,245.620 223.486,249.759 215.875 C 252.195 211.393,252.527 210.950,252.831 211.773 C 253.235 212.864,261.055 234.825,262.095 237.791 C 265.268 246.836,273.766 249.361,280.151 243.156 C 284.761 238.675,284.516 237.036,275.416 211.426 C 271.245 199.689,269.564 194.990,268.244 191.374 L 266.878 187.631 272.013 179.750 C 274.838 175.416,280.283 167.115,284.114 161.304 C 293.016 147.799,294.274 144.983,293.017 141.378 C 292.401 139.611,292.009 139.733,306.750 137.102 C 313.960 135.815,315.137 135.801,314.531 137.006 C 313.993 138.075,311.824 145.819,310.727 150.586 C 307.013 166.732,303.693 182.136,302.349 189.453 C 301.935 191.709,300.717 198.125,299.644 203.711 C 294.028 232.921,292.954 242.109,294.721 245.832 C 298.138 253.031,310.635 252.386,313.426 244.865 C 313.773 243.930,314.846 238.066,315.810 231.836 C 316.773 225.605,317.664 219.980,317.790 219.336 C 325.906 177.645,337.879 130.708,340.728 129.410 C 341.209 129.191,347.801 127.470,355.377 125.587 C 365.877 122.976,369.561 121.902,370.870 121.072 C 377.115 117.111,376.015 106.298,368.995 102.644 C 367.457 101.843,360.328 101.107,359.761 101.691 M363.969 102.222 C 363.596 102.319,362.893 102.323,362.407 102.229 C 361.921 102.136,362.227 102.056,363.086 102.052 C 363.945 102.047,364.343 102.124,363.969 102.222 M148.165 119.002 C 144.034 120.465,139.829 129.126,131.313 153.711 C 127.778 163.915,119.312 190.577,116.521 200.292 C 115.595 203.518,115.392 203.381,115.077 199.316 C 114.657 193.884,113.440 184.069,111.504 170.508 C 111.167 168.145,110.806 165.508,110.702 164.648 C 110.411 162.249,107.509 144.342,106.840 140.820 C 104.645 129.256,90.649 126.420,85.637 136.523 C 74.576 158.822,53.221 226.703,44.497 267.296 C 42.451 276.815,54.533 283.689,61.341 276.880 C 62.984 275.237,66.856 263.287,69.986 250.201 C 72.030 241.651,91.154 181.250,91.816 181.250 C 91.957 181.250,92.187 182.742,92.327 184.566 C 92.467 186.390,93.195 192.235,93.944 197.555 C 96.814 217.937,98.631 232.320,100.760 251.504 C 101.872 261.515,103.343 263.915,109.303 265.442 C 117.874 267.638,121.095 263.801,125.586 246.044 C 127.844 237.113,129.804 229.928,133.189 218.164 C 134.240 214.512,135.834 208.975,136.730 205.859 C 145.589 175.073,155.107 147.962,161.613 134.984 C 166.543 125.150,158.337 115.399,148.165 119.002 M152.246 119.019 C 151.870 119.118,151.255 119.118,150.879 119.019 C 150.503 118.921,150.811 118.841,151.563 118.841 C 152.314 118.841,152.622 118.921,152.246 119.019 M212.500 119.979 C 211.104 120.134,209.346 120.347,208.594 120.453 C 207.842 120.559,205.117 120.930,202.539 121.278 C 199.961 121.626,196.885 122.074,195.703 122.275 C 194.521 122.476,191.270 123.001,188.477 123.441 C 180.463 124.705,179.570 124.941,177.474 126.352 C 176.388 127.084,174.941 128.524,174.259 129.554 C 173.075 131.342,172.529 132.891,169.326 143.555 C 168.552 146.133,167.065 150.879,166.022 154.102 C 156.353 183.982,145.976 218.687,142.550 232.597 C 139.344 245.616,140.287 250.542,146.602 253.764 C 150.330 255.666,151.862 255.554,167.969 252.201 C 176.208 250.486,177.116 250.311,180.273 249.820 C 181.133 249.687,183.945 249.242,186.523 248.833 C 189.102 248.423,192.002 247.982,192.969 247.854 C 203.980 246.388,208.958 238.342,203.814 230.325 C 200.872 225.741,197.665 224.929,188.080 226.344 C 178.729 227.725,179.669 227.567,171.536 229.129 C 167.589 229.886,164.307 230.453,164.241 230.387 C 164.175 230.321,165.092 227.456,166.280 224.020 C 170.645 211.389,173.438 202.980,173.438 202.464 C 173.438 201.393,179.927 200.128,196.238 198.020 C 206.308 196.719,207.088 196.534,209.318 194.918 C 215.789 190.231,213.866 179.189,206.178 176.885 C 204.333 176.333,195.786 176.941,185.993 178.323 C 182.421 178.827,179.456 179.196,179.404 179.143 C 179.238 178.977,184.172 164.900,186.539 158.789 C 187.787 155.566,189.463 151.178,190.264 149.036 C 191.065 146.895,191.869 145.098,192.051 145.044 C 192.651 144.865,212.255 141.869,214.497 141.613 C 219.712 141.019,223.709 137.735,224.633 133.284 C 226.321 125.156,220.763 119.061,212.500 119.979 M256.836 258.446 C 256.191 258.537,252.764 258.962,249.219 259.390 C 240.103 260.489,227.991 262.066,225.003 262.542 C 223.609 262.765,221.148 263.106,219.535 263.300 C 214.963 263.851,198.590 266.296,195.117 266.946 C 193.398 267.268,188.916 268.081,185.156 268.753 C 169.664 271.521,145.739 276.895,129.376 281.281 C 127.721 281.725,124.346 282.616,121.875 283.262 C 113.774 285.380,110.932 288.230,110.941 294.226 C 110.953 301.855,117.487 306.168,125.427 303.788 C 127.233 303.246,130.205 302.426,132.031 301.964 C 133.857 301.503,137.988 300.443,141.211 299.609 C 146.923 298.131,154.871 296.275,157.227 295.870 C 157.871 295.760,159.050 295.496,159.846 295.285 C 161.883 294.745,177.261 291.718,186.328 290.073 C 196.653 288.200,219.780 284.756,232.617 283.180 C 234.336 282.969,236.270 282.713,236.914 282.611 C 239.030 282.277,250.879 280.940,255.664 280.494 C 267.559 279.387,270.330 278.175,272.500 273.130 C 276.315 264.261,268.364 256.808,256.836 258.446 " stroke="none" fill="#d8d8d8" fill-rule="evenodd"></path><path id="path1" d="M0.000 200.000 L 0.000 400.000 200.000 400.000 L 400.000 400.000 400.000 200.000 L 400.000 0.000 200.000 0.000 L 0.000 0.000 0.000 200.000 M368.103 102.098 C 375.200 105.063,377.517 114.131,372.607 119.722 C 370.744 121.845,369.786 122.175,354.358 126.007 C 338.212 130.018,340.119 128.711,337.415 137.619 C 329.240 164.554,319.354 208.578,315.074 237.109 C 313.417 248.160,311.396 250.667,304.011 250.831 C 294.458 251.044,292.213 245.781,294.905 229.492 C 295.367 226.699,295.828 223.887,295.930 223.242 C 296.385 220.367,300.180 199.853,301.567 192.773 C 302.409 188.477,303.187 184.434,303.297 183.789 C 304.588 176.183,311.348 146.750,313.253 140.438 C 314.648 135.816,314.572 135.676,311.073 136.449 C 309.602 136.774,306.553 137.334,304.297 137.694 C 302.041 138.054,299.229 138.579,298.047 138.862 C 296.865 139.145,295.279 139.482,294.522 139.611 L 293.145 139.846 293.155 143.293 C 293.167 147.790,293.308 147.526,280.272 167.409 C 274.506 176.203,269.192 184.332,268.461 185.473 L 267.133 187.547 268.293 190.941 C 268.931 192.808,271.047 198.772,272.996 204.194 C 283.356 233.009,284.235 236.244,282.703 239.898 C 280.559 245.013,272.838 248.263,268.359 245.937 C 264.553 243.959,263.637 242.479,260.123 232.617 C 258.668 228.535,256.438 222.295,255.167 218.750 C 253.896 215.205,252.768 212.041,252.661 211.719 C 252.536 211.344,252.092 211.866,251.432 213.164 C 246.723 222.412,230.131 249.690,227.921 251.816 C 220.862 258.606,209.959 253.698,210.052 243.773 C 210.088 239.923,211.847 236.937,241.094 191.077 L 244.418 185.865 241.972 177.991 C 240.627 173.660,238.702 167.393,237.695 164.063 C 236.687 160.732,234.474 153.579,232.775 148.166 C 229.240 136.898,229.074 135.578,230.760 132.137 C 234.190 125.130,244.831 124.573,248.975 131.183 C 249.907 132.670,252.347 139.647,256.839 153.677 L 259.455 161.846 260.999 159.341 C 261.848 157.963,264.435 153.760,266.748 150.000 C 269.061 146.240,271.191 142.788,271.481 142.328 C 271.953 141.581,271.886 141.334,270.841 139.985 C 265.999 133.733,267.107 124.547,273.073 121.477 C 273.840 121.083,280.519 119.416,287.917 117.774 C 295.315 116.132,304.355 114.093,308.008 113.242 C 322.774 109.802,326.986 108.851,341.406 105.702 C 349.678 103.896,357.588 102.148,358.984 101.816 C 361.945 101.114,366.052 101.241,368.103 102.098 M156.771 119.072 C 162.095 121.427,165.332 129.039,162.710 133.040 C 161.465 134.940,155.740 148.439,152.950 156.055 C 145.056 177.595,131.647 222.058,125.387 247.446 C 122.727 258.234,120.912 262.383,117.992 264.351 C 113.033 267.693,104.987 265.675,102.280 260.410 C 101.336 258.574,101.046 256.777,100.001 246.289 C 99.552 241.777,98.943 236.416,98.649 234.375 C 98.354 232.334,98.009 229.697,97.881 228.516 C 97.632 226.208,97.259 223.228,96.290 215.820 C 95.285 208.128,94.991 206.008,93.959 199.023 C 93.449 195.575,91.840 182.952,91.771 181.858 C 91.636 179.740,75.613 230.825,69.111 254.102 C 66.530 263.340,64.152 271.840,63.827 272.991 C 60.887 283.387,44.201 280.743,44.149 269.873 C 44.123 264.403,57.653 213.763,65.896 188.477 C 73.135 166.273,84.822 136.242,87.233 133.654 C 92.150 128.375,102.691 129.961,105.821 136.451 C 106.746 138.367,109.468 154.367,111.915 172.266 C 112.017 173.018,112.280 174.863,112.498 176.367 C 113.184 181.091,114.773 194.208,115.029 197.266 C 115.463 202.430,115.636 202.887,116.285 200.586 C 117.380 196.703,124.722 173.075,127.027 166.016 C 132.005 150.771,138.239 134.084,142.527 124.527 C 145.065 118.871,151.095 116.561,156.771 119.072 M218.919 120.651 C 228.939 125.083,226.204 140.247,215.135 141.638 C 214.223 141.753,210.752 142.262,207.422 142.769 C 204.092 143.277,199.411 143.989,197.021 144.352 C 194.630 144.715,192.476 145.134,192.235 145.283 C 191.326 145.845,179.306 178.265,179.817 178.776 C 179.932 178.890,182.718 178.621,186.009 178.178 C 200.403 176.240,205.321 175.983,207.319 177.065 C 213.756 180.549,215.385 188.559,210.709 193.735 C 208.334 196.364,207.110 196.779,198.539 197.863 C 189.338 199.027,178.274 200.709,175.801 201.319 L 174.023 201.758 171.045 210.547 C 169.407 215.381,167.184 221.855,166.104 224.935 L 164.142 230.533 165.177 230.272 C 172.182 228.500,192.732 225.272,195.703 225.477 C 203.013 225.981,207.677 233.394,205.069 240.365 C 203.240 245.252,200.376 246.784,190.023 248.413 C 185.950 249.054,181.035 249.856,179.102 250.195 C 177.168 250.535,175.059 250.905,174.414 251.017 C 172.251 251.396,167.821 252.288,161.147 253.688 C 150.578 255.905,147.167 255.476,143.485 251.465 C 139.681 247.322,139.526 244.130,142.540 232.031 C 146.177 217.435,155.942 184.762,165.249 156.055 C 167.396 149.431,168.558 145.664,171.449 135.966 C 173.235 129.972,175.600 126.633,179.093 125.174 C 180.785 124.467,195.065 122.071,205.859 120.684 C 211.657 119.939,212.308 119.837,212.500 119.644 C 212.896 119.248,217.312 119.941,218.919 120.651 M266.959 258.968 C 275.731 263.215,275.425 275.365,266.450 279.137 C 265.119 279.696,262.152 280.079,253.125 280.856 C 250.439 281.087,244.199 281.808,239.258 282.458 C 229.152 283.788,210.871 286.280,209.360 286.534 C 208.815 286.626,206.003 287.052,203.110 287.480 C 198.436 288.174,189.697 289.623,184.180 290.621 C 177.564 291.817,173.136 292.652,170.729 293.159 C 169.217 293.477,167.494 293.823,166.900 293.928 C 160.070 295.140,142.048 299.435,129.838 302.760 C 122.229 304.833,120.092 305.053,117.488 304.035 C 109.262 300.820,108.298 289.826,115.832 285.151 C 118.473 283.514,147.017 276.374,170.508 271.476 C 193.805 266.618,225.929 261.765,259.180 258.081 C 262.171 257.750,265.141 258.088,266.959 258.968 " stroke="none" fill="#fcfcfc" fill-rule="evenodd"></path><path id="path2" d="" stroke="none" fill="#e5e5e5" fill-rule="evenodd"></path><path id="path3" d="M258.301 280.347 C 258.677 280.446,259.292 280.446,259.668 280.347 C 260.044 280.249,259.736 280.169,258.984 280.169 C 258.232 280.169,257.925 280.249,258.301 280.347 " stroke="none" fill="#ececec" fill-rule="evenodd"></path><path id="path4" d="M362.407 102.229 C 362.893 102.323,363.596 102.319,363.969 102.222 C 364.343 102.124,363.945 102.047,363.086 102.052 C 362.227 102.056,361.921 102.136,362.407 102.229 M150.879 119.019 C 151.255 119.118,151.870 119.118,152.246 119.019 C 152.622 118.921,152.314 118.841,151.563 118.841 C 150.811 118.841,150.503 118.921,150.879 119.019 " stroke="none" fill="#dedede" fill-rule="evenodd"></path></g></svg>